# xmcd
# 
# Track frame offsets:
#     150
#     24914
#     50817
#     66145
#     82308
#     111045
#     137608
#     173529
#     202569
#     230507
#     261904
#     297486
#     322507
# 
# Disc length: 4787
# 
# Revision: 2
# Processed by: cddbd v1.5.2PL0 Copyright (c) Steve Scherf et al.
# Submitted via: BonkEnc v1.0
# 
DISCID=ad12b10d
DTITLE=Gov't Mule - The deep end, vol. 2 (2002)
DYEAR=2002
DGENRE=Rock
TTITLE0=Trying Not To Fall
TTITLE1=Time To Confess
TTITLE2=Greasy Granny's Gopher Gravy (Pt1)
TTITLE3=Greasy Granny's Gopher Gravy (Pt2)
TTITLE4=What Is Hip?
TTITLE5=World Of Confusion
TTITLE6=Hammer And Nails
TTITLE7=Slow Happy Boys
TTITLE8=Sun Dance
TTITLE9=Lay Of The Sunflower
TTITLE10=Catfish Blues
TTITLE11=Which Way Do We Run?
TTITLE12=Babylon Turnpike
EXTD=
EXTT0=
EXTT1=
EXTT2=
EXTT3=
EXTT4=
EXTT5=
EXTT6=
EXTT7=
EXTT8=
EXTT9=
EXTT10=
EXTT11=
EXTT12=
PLAYORDER=
